<svg width="50" height="50" viewBox="0 0 50 50" fill="none" xmlns="http://www.w3.org/2000/svg">
<path d="M49.1935 24.1935H48.3871V19.2161C48.3871 17.529 47.7306 15.9435 46.5379 14.7524C45.3452 13.5597 43.7597 12.9032 42.0734 12.9032H41.129V12.0306C43.054 10.9129 44.3548 8.83387 44.3548 6.45161C44.3548 2.89436 41.4605 0 37.9032 0C34.346 0 31.4516 2.89436 31.4516 6.45161C31.4516 8.83306 32.7524 10.9129 34.6774 12.0306V12.9032H33.7331C32.0468 12.9032 30.4613 13.5597 29.2685 14.7524C28.0758 15.9444 27.4194 17.529 27.4194 19.2161V24.1935H25.8065V21.7742C25.8065 21.3282 25.4452 20.9677 25 20.9677H22.5806V20.6911C22.5806 18.3395 23.3742 16.1113 24.8282 14.3056C25.1282 14.4387 25.4581 14.5161 25.8065 14.5161C27.1403 14.5161 28.2258 13.4306 28.2258 12.0968C28.2258 10.7629 27.1403 9.67742 25.8065 9.67742C24.4726 9.67742 23.3871 10.7629 23.3871 12.0968C23.3871 12.4903 23.4903 12.8556 23.6573 13.1847C21.9161 15.2952 20.9677 17.9202 20.9677 20.6911V20.9677H18.5484C18.1032 20.9677 17.7419 21.3282 17.7419 21.7742V24.1935H16.9355C16.4903 24.1935 16.129 24.554 16.129 25V28.2258C16.129 28.6718 16.4903 29.0323 16.9355 29.0323H17.7419V33.871C15.5185 33.871 13.7097 35.6798 13.7097 37.9032C13.7097 39.1008 14.2452 40.1661 15.0766 40.9056C13.8137 41.4815 12.7661 42.4492 12.0968 43.6581C11.4274 42.45 10.3798 41.4823 9.11694 40.9056C9.94839 40.1661 10.4839 39.1008 10.4839 37.9032C10.4839 35.6798 8.675 33.871 6.45161 33.871C4.22823 33.871 2.41935 35.6798 2.41935 37.9032C2.41935 39.1008 2.95484 40.1661 3.78629 40.9056C1.55645 41.9226 0 44.1677 0 46.7742V49.1935C0 49.6395 0.36129 50 0.806452 50H34.6774C35.1226 50 35.4839 49.6395 35.4839 49.1935V48.3871H47.5806C48.0258 48.3871 48.3871 48.0266 48.3871 47.5806V29.0323H49.1935C49.6387 29.0323 50 28.6718 50 28.2258V25C50 24.554 49.6387 24.1935 49.1935 24.1935ZM25.8065 11.2903C26.2508 11.2903 26.6129 11.6516 26.6129 12.0968C26.6129 12.5419 26.2508 12.9032 25.8065 12.9032C25.3621 12.9032 25 12.5419 25 12.0968C25 11.6516 25.3621 11.2903 25.8065 11.2903ZM46.7742 19.2161V24.1935H45.1613V20.9677H43.5484V24.1935H38.7097V18.2403L40.7685 19.2694C40.8815 19.3266 41.0056 19.3548 41.129 19.3548C41.2339 19.3548 41.3387 19.3347 41.4379 19.2935C41.654 19.204 41.8202 19.025 41.8944 18.804L43.271 14.675C44.0677 14.8839 44.8 15.2952 45.3984 15.8935C46.2855 16.7806 46.7742 17.9605 46.7742 19.2161V19.2161ZM35.0806 14.5161L36.6782 16.646L35.1484 17.4113L34.1839 14.5161H35.0806ZM40.7258 14.5161H41.6234L40.6589 17.4113L39.129 16.646L40.7258 14.5161ZM37.9032 1.6129C40.2742 1.6129 42.2484 3.32823 42.6597 5.58226C41.1323 5.38871 39.7185 4.70645 38.6129 3.60081L38.475 3.4621C38.1726 3.15806 37.6355 3.15806 37.3331 3.4621L37.196 3.6C36.0895 4.70645 34.6758 5.38871 33.1484 5.58145C33.5581 3.32823 35.5323 1.6129 37.9032 1.6129ZM33.125 7.21532C34.8976 7.03952 36.5556 6.32258 37.9032 5.14516C39.2508 6.32177 40.9081 7.03952 42.6815 7.21532C42.3145 9.52177 40.3113 11.2903 37.9032 11.2903C35.4952 11.2903 33.4919 9.52177 33.125 7.21532ZM37.9032 12.9032C38.4613 12.9032 38.9992 12.825 39.5161 12.6911V13.4411L37.9032 15.5911L36.2903 13.4411V12.6911C36.8073 12.825 37.3452 12.9032 37.9032 12.9032ZM29.0323 19.2161C29.0323 17.9605 29.521 16.7798 30.4089 15.8927C31.0073 15.2952 31.7395 14.8831 32.5363 14.6742L33.9129 18.8032C33.9871 19.0242 34.1532 19.2032 34.3694 19.2927C34.4677 19.3347 34.5726 19.3548 34.6774 19.3548C34.8008 19.3548 34.925 19.3266 35.0379 19.2702L37.0968 18.2403V24.1935H32.2581V20.9677H30.6452V24.1935H29.0323V19.2161ZM19.3548 22.5806H24.1935V24.1935H19.3548V22.5806ZM15.3226 37.9032C15.3226 36.5694 16.4081 35.4839 17.7419 35.4839C19.0758 35.4839 20.1613 36.5694 20.1613 37.9032C20.1613 39.2371 19.0758 40.3226 17.7419 40.3226C16.4081 40.3226 15.3226 39.2371 15.3226 37.9032ZM4.03226 37.9032C4.03226 36.5694 5.11774 35.4839 6.45161 35.4839C7.78548 35.4839 8.87097 36.5694 8.87097 37.9032C8.87097 39.2371 7.78548 40.3226 6.45161 40.3226C5.11774 40.3226 4.03226 39.2371 4.03226 37.9032ZM1.6129 46.7742C1.6129 44.1056 3.78306 41.9355 6.45161 41.9355C9.12016 41.9355 11.2903 44.1056 11.2903 46.7742V48.3871H1.6129V46.7742ZM12.9032 46.7742C12.9032 44.1056 15.0734 41.9355 17.7419 41.9355C20.4105 41.9355 22.5806 44.1056 22.5806 46.7742V48.3871H12.9032V46.7742ZM33.871 48.3871H24.1935V46.7742C24.1935 44.1056 26.3637 41.9355 29.0323 41.9355C31.7008 41.9355 33.871 44.1056 33.871 46.7742V48.3871ZM26.6129 37.9032C26.6129 36.5694 27.6984 35.4839 29.0323 35.4839C30.3661 35.4839 31.4516 36.5694 31.4516 37.9032C31.4516 39.2371 30.3661 40.3226 29.0323 40.3226C27.6984 40.3226 26.6129 39.2371 26.6129 37.9032ZM46.7742 46.7742H35.4839C35.4839 44.1677 33.9274 41.9226 31.6976 40.9056C32.529 40.1661 33.0645 39.1008 33.0645 37.9032C33.0645 35.6798 31.2556 33.871 29.0323 33.871C26.8089 33.871 25 35.6798 25 37.9032C25 39.1008 25.5355 40.1661 26.3669 40.9056C25.104 41.4815 24.0565 42.4492 23.3871 43.6581C22.7177 42.45 21.6702 41.4823 20.4073 40.9056C21.2387 40.1661 21.7742 39.1008 21.7742 37.9032C21.7742 36.254 20.7766 34.8371 19.3548 34.2129V29.0323H46.7742V46.7742ZM48.3871 27.4194H17.7419V25.8065H48.3871V27.4194Z" fill="#2C3E50"/>
<path d="M2.41935 16.1289H15.3226C16.6565 16.1289 17.7419 15.0434 17.7419 13.7096V12.4305L20.7315 9.44102C21.0468 9.1257 21.0468 8.61602 20.7315 8.3007L17.7419 5.31118V4.03215C17.7419 2.69828 16.6565 1.61279 15.3226 1.61279H2.41935C1.08548 1.61279 0 2.69828 0 4.03215V13.7096C0 15.0434 1.08548 16.1289 2.41935 16.1289ZM1.6129 4.03215C1.6129 3.58699 1.975 3.2257 2.41935 3.2257H15.3226C15.7669 3.2257 16.129 3.58699 16.129 4.03215V5.64505C16.129 5.85957 16.2137 6.06441 16.3653 6.21521L19.021 8.87086L16.3653 11.5265C16.2137 11.6773 16.129 11.8821 16.129 12.0967V13.7096C16.129 14.1547 15.7669 14.516 15.3226 14.516H2.41935C1.975 14.516 1.6129 14.1547 1.6129 13.7096V4.03215Z" fill="#2C3E50"/>
<path d="M3.22632 4.83875H14.5166V6.45165H3.22632V4.83875Z" fill="#2C3E50"/>
<path d="M3.22632 11.2903H14.5166V12.9032H3.22632V11.2903Z" fill="#2C3E50"/>
<path d="M4.83887 8.06458H12.9034V9.67748H4.83887V8.06458Z" fill="#2C3E50"/>
</svg>
