<svg width="50" height="49" viewBox="0 0 50 49" fill="none" xmlns="http://www.w3.org/2000/svg">
<path d="M2.67412 29.8745C2.8375 30.3174 3.09492 30.716 3.42432 31.0427C4.0084 31.6268 4.81133 31.9894 5.69707 31.9894C6.58018 31.9894 7.38574 31.6268 7.96973 31.0427C8.55381 30.4587 8.91641 29.6531 8.91641 28.77V26.979C8.23828 27.0371 7.64307 26.8904 7.17803 26.6966C7.13643 26.8986 7.08945 27.0952 7.02852 27.289C6.79873 28.0363 6.41396 28.7174 5.80498 29.2073C5.1877 29.7057 4.36836 29.9936 3.28311 29.9381C3.08936 29.9298 2.88721 29.9077 2.67412 29.8745ZM21.6478 25.0772H28.0866V23.0536H23.1287C22.7218 23.0536 22.3508 23.2226 22.0823 23.491C21.8138 23.7596 21.6478 24.1277 21.6478 24.5347V25.0772ZM28.0865 26.5416H21.6477V28.7699C21.6477 29.653 22.0103 30.4586 22.5943 31.0426C23.1783 31.6267 23.9839 31.9893 24.867 31.9893C25.7527 31.9893 26.5583 31.6267 27.1397 31.0426C27.7237 30.4586 28.0864 29.653 28.0864 28.7699V26.5416H28.0865ZM48.1563 31.4303C48.5494 31.6379 48.8954 31.9203 49.1806 32.2552C49.6927 32.8587 50 33.6365 50 34.4808V39.4192C50 39.8234 49.6733 40.15 49.2692 40.15C48.8651 40.15 48.5356 39.8233 48.5356 39.4192V34.4808C48.5356 33.9937 48.3584 33.5451 48.065 33.1991C47.8048 32.8918 47.4532 32.6648 47.0519 32.5569C46.2796 33.1216 45.3299 33.4538 44.3058 33.4538C43.2456 33.4538 42.2655 33.0995 41.4766 32.4988C41.3271 32.5154 41.1831 32.557 41.0447 32.6207C40.8564 32.7092 40.6849 32.8449 40.5464 33.0275L36.6127 38.2374C36.4743 38.4201 36.2584 38.5309 36.0287 38.5309H30.9878C30.6141 38.5309 30.2764 38.6803 30.0328 38.9238C29.7892 39.1702 29.6369 39.5079 29.6369 39.8789C29.6369 40.2525 29.7892 40.5903 30.0328 40.8339C30.2764 41.0774 30.6141 41.2298 30.9878 41.2298H37.0086C37.2496 41.2298 37.435 41.2049 37.6648 41.0886C38.0911 40.8754 38.4897 40.2277 38.7804 39.8401L41.3854 36.3937C41.6289 36.0699 42.0856 36.0062 42.4095 36.2498C42.7306 36.4934 42.7942 36.9528 42.5507 37.274L40.0731 40.557V46.9405H48.5356V42.7355C48.5356 42.3313 48.865 42.0048 49.2692 42.0048C49.6734 42.0048 50 42.3314 50 42.7355V47.674C50 48.0782 49.6733 48.4048 49.2692 48.4048C33.0888 48.4048 16.9112 48.4048 0.733594 48.4048C0.329492 48.4048 0 48.0781 0 47.674V42.7355C0 42.3313 0.329492 42.0048 0.733594 42.0048C1.13779 42.0048 1.46436 42.3314 1.46436 42.7355V46.9405H9.92969V40.557L7.44941 37.274C7.20586 36.9528 7.26953 36.4934 7.59346 36.2498C7.91455 36.0062 8.37402 36.0698 8.61768 36.3937L11.1644 39.7654C11.3969 40.0727 11.6295 40.3826 11.8619 40.6928C11.9947 40.8671 12.1581 41 12.3381 41.0886C12.5401 41.191 12.7284 41.2298 12.9499 41.2298H19.015C19.386 41.2298 19.7237 41.0774 19.97 40.8339C20.2137 40.5903 20.3631 40.2525 20.3631 39.8789C20.3631 39.5079 20.2137 39.1702 19.97 38.9238C19.7237 38.6803 19.386 38.5309 19.015 38.5309H13.9714C13.7499 38.5309 13.5313 38.4284 13.3874 38.2374L9.45371 33.0275C9.22939 32.7313 8.89443 32.5404 8.52363 32.4988C7.7374 33.0968 6.75752 33.4538 5.69727 33.4538C4.67305 33.4538 3.7207 33.1217 2.94844 32.5598C2.55537 32.6622 2.20654 32.8864 1.94629 33.1854C1.64727 33.5341 1.46455 33.9854 1.46455 34.4809V39.4193C1.46455 39.8235 1.13789 40.1501 0.733789 40.1501C0.329688 40.1501 0.000195313 39.8234 0.000195313 39.4193V34.4809C0.000195313 33.6255 0.318555 32.8366 0.841699 32.2304C1.12412 31.9065 1.46455 31.6324 1.84658 31.4304C1.30127 30.647 1.01338 29.7224 1.01338 28.7701V24.5348C1.01338 23.7236 1.34277 22.9873 1.87705 22.4531C2.41143 21.9217 3.14492 21.5895 3.95596 21.5895H7.43555C8.24668 21.5895 8.98301 21.9216 9.51719 22.4531C10.0516 22.9874 10.381 23.7237 10.381 24.5348V28.7701C10.381 29.7085 10.1014 30.5861 9.62236 31.3196C10.0183 31.5189 10.3531 31.793 10.6217 32.1474L14.334 37.0637H17.2654V34.0935C17.2654 33.252 17.7111 32.4906 18.4336 31.8456C18.9929 31.3474 19.7292 30.9127 20.5431 30.5695C20.3105 30.0131 20.1833 29.4068 20.1833 28.7701V25.8108V24.5347C20.1833 23.7235 20.5154 22.9872 21.0471 22.453C21.5813 21.9216 22.3177 21.5894 23.1287 21.5894H28.8201C29.2244 21.5894 29.5538 21.9188 29.5538 22.323V25.8109V28.7701C29.5538 29.3708 29.4376 29.9467 29.23 30.4781C30.1047 30.8214 30.8964 31.2643 31.4944 31.7791C32.2611 32.438 32.7346 33.2241 32.7346 34.0934V37.0636H35.666L39.3783 32.1473C39.6524 31.7873 39.9956 31.5105 40.3805 31.3224C39.8987 30.586 39.6191 29.7085 39.6191 28.77V24.5347C39.6191 23.7235 39.9514 22.9872 40.4829 22.453C41.0172 21.9216 41.7535 21.5894 42.5645 21.5894H46.0443C46.8554 21.5894 47.5918 21.9215 48.126 22.453C48.6574 22.9873 48.9896 23.7236 48.9896 24.5347V28.77C48.9896 29.7222 48.6989 30.6468 48.1563 31.4303ZM47.3259 29.8745C47.1155 29.9077 46.9106 29.9298 46.7169 29.9381C45.6345 29.9935 44.815 29.7056 44.1978 29.2073C43.5859 28.7174 43.2012 28.0364 42.9714 27.289C42.9132 27.0952 42.8635 26.8986 42.8246 26.6966C42.3568 26.8903 41.7645 27.037 41.0835 26.979V28.77C41.0835 29.6531 41.4461 30.4587 42.0302 31.0427C42.6142 31.6268 43.4198 31.9894 44.3057 31.9894C45.1887 31.9894 45.9943 31.6268 46.5784 31.0427C46.9052 30.716 47.1625 30.3174 47.3259 29.8745ZM41.0835 25.5118C42.0606 25.6502 42.7748 25.0827 42.9021 24.972C43.0462 24.8502 43.1817 24.7755 43.3783 24.7671C43.7825 24.7478 44.1229 25.0578 44.1423 25.4619C44.1673 25.9381 44.2336 26.4198 44.3692 26.8599C44.5187 27.3498 44.754 27.7816 45.1112 28.0695C45.4628 28.352 45.9584 28.5125 46.6477 28.4792C46.9134 28.4653 47.204 28.4239 47.5251 28.3519V24.5345C47.5251 24.1275 47.3563 23.7594 47.0877 23.4908C46.8192 23.2224 46.451 23.0534 46.0441 23.0534H42.5645C42.1575 23.0534 41.7893 23.2224 41.5208 23.4908C41.2522 23.7594 41.0835 24.1275 41.0835 24.5345V25.5118ZM8.9165 25.5118V24.5346C8.9165 24.1276 8.75049 23.7595 8.48193 23.4909C8.21348 23.2225 7.84248 23.0535 7.43555 23.0535H3.95576C3.55166 23.0535 3.18066 23.2225 2.91211 23.4909C2.64365 23.7595 2.47754 24.1276 2.47754 24.5346V28.352C2.7959 28.4239 3.08652 28.4654 3.35234 28.4793C4.0417 28.5126 4.53721 28.352 4.88867 28.0696C5.2458 27.7818 5.48105 27.3499 5.6334 26.86C5.76904 26.4198 5.83545 25.9382 5.85762 25.462C5.87695 25.0578 6.22021 24.7479 6.62158 24.7672C6.80986 24.7756 6.95371 24.8447 7.09219 24.9665C7.19473 25.0578 7.92002 25.6529 8.9165 25.5118ZM21.3267 31.8289C20.5625 32.1251 19.8871 32.5016 19.4054 32.9335C18.9874 33.3044 18.7299 33.703 18.7299 34.0934V37.0636H19.015C19.7902 37.0636 20.4961 37.3791 21.0055 37.8885C21.5148 38.3979 21.8304 39.101 21.8304 39.8789C21.8304 40.3689 21.703 40.8284 21.4844 41.2298H28.5156C28.297 40.8284 28.1724 40.3689 28.1724 39.8789C28.1724 39.101 28.4879 38.3979 28.9974 37.8885C29.5067 37.3791 30.2098 37.0636 30.9877 37.0636H31.2701V34.0934C31.2701 33.6892 30.9933 33.2739 30.5448 32.8892C30.0188 32.438 29.288 32.0477 28.4741 31.7515C28.38 31.8649 28.2804 31.9757 28.1779 32.0781C27.3281 32.9279 26.1571 33.4539 24.8672 33.4539C23.5799 33.4539 22.4062 32.9279 21.5592 32.0781C21.4788 31.9977 21.4013 31.9147 21.3267 31.8289ZM6.104 5.42285C5.6998 5.42285 5.37324 5.09346 5.37324 4.68926C5.37324 4.28506 5.6999 3.9585 6.104 3.9585H19.6628C20.067 3.9585 20.3937 4.28516 20.3937 4.68926C20.3937 5.09346 20.0669 5.42285 19.6628 5.42285H6.104ZM6.104 13.1296C5.6998 13.1296 5.37324 12.8002 5.37324 12.396C5.37324 11.9918 5.6999 11.6624 6.104 11.6624H12.8835C13.2877 11.6624 13.6171 11.9918 13.6171 12.396C13.6171 12.8002 13.2877 13.1296 12.8835 13.1296H6.104ZM6.104 9.27627C5.6998 9.27627 5.37324 8.94678 5.37324 8.54268C5.37324 8.13848 5.6999 7.81191 6.104 7.81191H19.6628C20.067 7.81191 20.3937 8.13857 20.3937 8.54268C20.3937 8.94678 20.0669 9.27627 19.6628 9.27627H6.104ZM20.413 17.0854C20.5154 17.3705 20.6787 17.6251 20.8864 17.8327C21.2574 18.2064 21.7723 18.439 22.3452 18.439H26.6498C27.054 18.439 27.3806 18.7656 27.3806 19.1726C27.3806 19.5768 27.0539 19.9033 26.6498 19.9033H22.3452C21.3681 19.9033 20.4877 19.5048 19.851 18.8625C19.3749 18.3837 19.0371 17.7691 18.8932 17.0854H8.68125L5.36494 20.4017C5.23213 20.5346 5.04941 20.6176 4.84453 20.6176C4.44033 20.6176 4.11094 20.2909 4.11094 19.8868V17.0245C3.18076 16.8694 2.34746 16.4238 1.70811 15.7815C0.902539 14.9787 0.404297 13.8687 0.404297 12.6451V4.44023C0.404297 3.21943 0.902637 2.10938 1.70811 1.30391C2.51084 0.501074 3.6209 0 4.84453 0H20.9226C22.146 0 23.2562 0.501074 24.0589 1.30391C24.8645 2.10938 25.3627 3.21943 25.3627 4.44023V5.79668H37.8033C38.7749 5.79668 39.6553 6.19258 40.2947 6.83203C40.9342 7.47148 41.3301 8.35176 41.3301 9.32344V16.3769C41.3301 17.3485 40.9342 18.2288 40.2947 18.8683C39.8213 19.3417 39.2124 19.6821 38.5342 19.8262V22.7051C38.5342 22.8905 38.4649 23.0787 38.321 23.2228C38.0358 23.5078 37.5708 23.5078 37.2855 23.2228L33.9665 19.9036H29.9664C29.5622 19.9036 29.2328 19.577 29.2328 19.1728C29.2328 18.7659 29.5622 18.4393 29.9664 18.4393H34.271C34.4759 18.4393 34.6585 18.5224 34.7914 18.6579L37.0696 20.9361V19.1728C37.0696 18.7658 37.399 18.4392 37.8033 18.4392C38.368 18.4392 38.8856 18.2066 39.2594 17.8329C39.6331 17.4593 39.8656 16.9443 39.8656 16.3769V9.32344C39.8656 8.75596 39.6331 8.24111 39.2594 7.86738C38.8856 7.49365 38.368 7.26113 37.8033 7.26113H25.3626V12.6453C25.3626 13.8688 24.8644 14.9789 24.0588 15.7817C23.256 16.5872 22.1459 17.0855 20.9225 17.0855H20.413V17.0854ZM8.37666 15.621H20.9225C21.7419 15.621 22.4837 15.286 23.0235 14.7463C23.5633 14.2064 23.8982 13.4618 23.8982 12.6451V4.44023C23.8982 3.62363 23.5633 2.879 23.0235 2.33916C22.4838 1.79932 21.7419 1.46436 20.9225 1.46436H4.84443C4.025 1.46436 3.28311 1.79932 2.74326 2.33916C2.20352 2.87891 1.86846 3.62353 1.86846 4.44023V12.6452C1.86846 13.4618 2.20352 14.2064 2.74326 14.7464C3.28301 15.2861 4.025 15.6211 4.84443 15.6211C5.24863 15.6211 5.5752 15.9505 5.5752 16.3547V18.1181L7.85898 15.8371C8.00303 15.693 8.18848 15.621 8.37666 15.621ZM38.6087 42.694H11.3941V46.9404H38.6088V42.694H38.6087Z" fill="#2C3E50"/>
</svg>
