<svg width="40" height="40" viewBox="0 0 40 40" fill="none" xmlns="http://www.w3.org/2000/svg">
<path d="M0.98254 24.9286C1.20177 25.0811 1.43347 25.2149 1.67518 25.3286C1.96317 25.4759 2.44582 25.7225 2.47982 25.8952C2.52176 26.1231 2.49435 26.3583 2.40115 26.5705C2.30182 26.7838 2.19783 26.9672 2.10783 27.1252C1.86384 27.5565 1.45519 28.2791 2.07116 28.7824C2.21516 28.9158 2.46382 29.1084 2.69047 29.2824C2.52362 29.5742 2.44814 29.9093 2.47382 30.2444C2.50906 30.5082 2.65222 30.7455 2.86913 30.8997C3.01713 31.0043 3.17512 31.095 3.33112 31.1837C3.7251 31.4083 3.87909 31.513 3.93109 31.7216C3.96813 31.99 3.94537 32.2631 3.86443 32.5216C3.8251 32.6996 3.7871 32.8783 3.76443 33.0549C3.69823 33.6625 3.77329 34.2771 3.98376 34.8509C4.28355 35.9098 5.24126 36.6477 6.34167 36.6674C6.52539 36.6669 6.70857 36.6475 6.88831 36.6095C8.79276 36.158 10.6694 35.5964 12.5088 34.9275C14.0107 35.8088 14.9593 38.4887 15.2067 39.4947C15.2805 39.7921 15.5476 40.0008 15.854 40.0007L32.5867 39.954C32.7987 39.9536 32.9979 39.8523 33.1232 39.6812C33.2485 39.5101 33.2849 39.2896 33.2213 39.0874C33.0565 38.6357 32.8292 38.2093 32.546 37.8207C32.3861 37.5903 32.242 37.3493 32.1147 37.0994C31.8129 36.4888 31.5612 35.8548 31.362 35.2035C30.9865 33.9292 30.7246 32.6242 30.5794 31.3037C30.5575 31.0613 30.4054 30.8501 30.1824 30.7527C29.9595 30.6552 29.7011 30.687 29.5084 30.8356C29.3157 30.9841 29.2193 31.2259 29.2568 31.4663C29.4109 32.8659 29.6891 34.2491 30.0881 35.5995C30.3074 36.3161 30.5841 37.0139 30.9154 37.6861C31.0675 37.988 31.2401 38.2791 31.432 38.5574L31.4767 38.624L16.3579 38.6674C15.9154 37.086 15.1122 35.6288 14.0114 34.4102L14.6113 34.2002C15.058 34.0442 15.3946 33.9269 15.5673 33.8716C18.4232 32.9683 19.8511 31.6676 19.8125 30.005C19.813 29.8274 19.7408 29.6573 19.6125 29.5343C19.4843 29.4114 19.3113 29.3464 19.1338 29.3544C18.7659 29.3631 18.4746 29.6684 18.4832 30.0364C18.4992 30.7223 17.9372 31.723 15.166 32.5996C14.9853 32.6576 14.6373 32.7789 14.1754 32.9403C13.68 33.1136 13.0501 33.3336 12.3554 33.5696H12.3508C10.4747 34.2573 8.56048 34.836 6.61766 35.3028C5.996 35.4226 5.39057 35.0305 5.24571 34.4142C5.10329 34.035 5.0497 33.6281 5.08905 33.2249C5.10638 33.0849 5.13838 32.9463 5.16904 32.8069C5.30488 32.3458 5.32481 31.8583 5.22704 31.3877C5.03249 30.7762 4.58235 30.2791 3.99309 30.025L3.85443 29.9457C3.92641 29.8004 4.01237 29.6624 4.11109 29.5337C4.22292 29.392 4.27251 29.211 4.24851 29.0321C4.22451 28.8532 4.12898 28.6917 3.98376 28.5844C3.82376 28.4671 3.44644 28.1844 3.17046 27.9618C3.20245 27.9038 3.23712 27.8398 3.27045 27.7818C3.37511 27.5985 3.49444 27.3851 3.6111 27.1385C3.82206 26.6712 3.8842 26.1503 3.7891 25.6465C3.6291 24.8332 2.85047 24.4346 2.28182 24.1439C2.0906 24.0534 1.9073 23.9471 1.73384 23.8259C1.5909 23.7299 1.45701 23.621 1.33386 23.5006C1.33386 23.4 1.44186 23.156 1.94984 22.5367C3.14369 21.0003 4.16678 19.3386 5.00105 17.5809C5.15845 17.3054 5.24696 16.9959 5.25904 16.6789C5.19018 16.0088 4.83509 15.4012 4.28508 15.0123C4.01509 14.765 3.7611 14.5316 3.73177 14.3163C3.73622 14.1583 3.77155 14.0027 3.83576 13.8583C3.94443 13.5723 4.06975 13.2924 4.19575 13.0117C4.46911 12.4481 4.68744 11.8593 4.84772 11.2538L4.91439 10.9698C5.05576 10.3033 5.23787 9.64606 5.4597 9.00185C5.98521 7.55141 6.79885 6.22234 7.85161 5.09467C9.12689 3.74539 11.1341 2.79076 13.8274 2.25545C15.8875 1.8032 17.9778 1.50196 20.0818 1.35415C21.1311 1.29734 22.1835 1.35703 23.2197 1.53214C23.5779 1.58583 23.9134 1.34373 23.9753 0.98689C24.0373 0.630054 23.803 0.289036 23.4477 0.218858C22.3134 0.0260987 21.1613 -0.039638 20.0125 0.0228656C17.8433 0.173319 15.688 0.48258 13.5641 0.948163C10.5582 1.54814 8.37359 2.6021 6.88231 4.17804C5.70596 5.43677 4.79642 6.92047 4.20842 8.53987C3.96834 9.2367 3.77109 9.94755 3.61777 10.6685L3.55111 10.9498C3.40883 11.4726 3.218 11.981 2.98113 12.4684C2.8478 12.7724 2.70914 13.0764 2.58981 13.391C2.43633 13.7415 2.3755 14.1255 2.41315 14.5063C2.54768 15.1032 2.89273 15.6317 3.38511 15.9949C3.7111 16.2942 3.92509 16.5049 3.92776 16.6882C3.90363 16.7898 3.86525 16.8874 3.81376 16.9782C3.01513 18.6608 2.03609 20.2516 0.893877 21.7227C0.411896 22.31 -0.0927514 22.9946 0.0145778 23.6793C0.155778 24.2091 0.504777 24.6595 0.98254 24.9286Z" fill="#2C3E50"/>
<path d="M7.44558 11.8644L7.51225 11.5678C7.62909 11.0135 7.77755 10.4664 7.9569 9.92917C8.35839 8.81622 8.98059 7.79584 9.78616 6.92929C10.6501 6.11465 11.7077 5.53392 12.8587 5.24202C13.0911 5.17653 13.2699 4.9905 13.3262 4.75569C13.3824 4.52088 13.3073 4.27401 13.1298 4.11032C12.9523 3.94663 12.7002 3.8917 12.4707 3.96674C11.097 4.32372 9.83859 5.02883 8.81686 6.01399C7.8885 7.01198 7.17129 8.18721 6.70828 9.46919C6.50826 10.0609 6.34332 10.664 6.2143 11.2751L6.14763 11.5638C6.06444 11.9222 6.28731 12.2802 6.64561 12.3637C6.69521 12.3754 6.746 12.3812 6.79694 12.3811C7.10699 12.3807 7.37582 12.1665 7.44558 11.8644Z" fill="#2C3E50"/>
<path d="M6.0016 14.6691C6.36978 14.6691 6.66824 14.3706 6.66824 14.0025C6.66824 13.6343 6.36978 13.3358 6.0016 13.3358C5.63343 13.3358 5.33496 13.6343 5.33496 14.0025C5.33496 14.3706 5.63343 14.6691 6.0016 14.6691Z" fill="#2C3E50"/>
<path d="M18.0011 13.4758C17.9555 15.7485 18.7586 17.9566 20.2537 19.6689C20.7243 20.1578 21.2374 20.604 21.787 21.0021C22.7623 21.7561 23.6863 22.4767 23.9316 23.4794C23.1699 23.7808 22.6691 24.5162 22.6676 25.3353V26.6686C22.6711 27.5131 23.2047 28.2644 24.0009 28.5458V28.6685C24.0009 30.1412 25.1948 31.3351 26.6675 31.3351C28.1402 31.3351 29.334 30.1412 29.334 28.6685V28.5458C30.1302 28.2644 30.6638 27.5131 30.6673 26.6686V25.3353C30.6654 24.5155 30.1634 23.78 29.4007 23.4794C29.6454 22.4794 30.57 21.7561 31.5453 21.0021C32.0947 20.6038 32.6078 20.1577 33.0786 19.6689C34.5742 17.9567 35.3783 15.7487 35.3338 13.4758C35.3152 8.6742 31.4681 4.76497 26.6675 4.66943C21.8668 4.76497 18.0197 8.6742 18.0011 13.4758ZM24.6675 14.669H24.0009C23.6327 14.669 23.3343 14.3706 23.3343 14.0024C23.3343 13.6342 23.6327 13.3358 24.0009 13.3358C24.3691 13.3358 24.6675 13.6342 24.6675 14.0024V14.669ZM27.3341 23.3354H26.0008V16.0023H27.3341V23.3354ZM26.6675 30.0018C25.9311 30.0018 25.3342 29.4049 25.3342 28.6685H28.0008C28.0008 29.4049 27.4038 30.0018 26.6675 30.0018ZM29.334 26.6686C29.334 27.0368 29.0356 27.3352 28.6674 27.3352H24.6675C24.2994 27.3352 24.0009 27.0368 24.0009 26.6686V25.3353C24.0009 24.9671 24.2994 24.6687 24.6675 24.6687H28.6674C29.0356 24.6687 29.334 24.9671 29.334 25.3353V26.6686ZM34.0005 13.4964C34.042 15.4321 33.3617 17.3139 32.0919 18.7756C31.6738 19.2043 31.2194 19.5962 30.734 19.9468C29.948 20.4944 29.2509 21.1597 28.6674 21.9194V16.0023H29.334C30.4386 16.0023 31.334 15.1069 31.334 14.0024C31.334 12.8979 30.4386 12.0025 29.334 12.0025C28.2295 12.0025 27.3341 12.8979 27.3341 14.0024V14.669H26.0008V14.0024C26.0008 12.8979 25.1054 12.0025 24.0009 12.0025C22.8964 12.0025 22.001 12.8979 22.001 14.0024C22.001 15.1069 22.8964 16.0023 24.0009 16.0023H24.6675V21.9194C24.0851 21.1601 23.3892 20.495 22.6043 19.9475C22.1186 19.5966 21.6641 19.2045 21.2457 18.7756C19.9747 17.3145 19.2933 15.4325 19.3344 13.4964C19.4011 9.43392 22.7556 6.00272 26.6675 6.00272C30.5793 6.00272 33.9372 9.43392 34.0005 13.4964ZM28.6674 14.669V14.0024C28.6674 13.6342 28.9659 13.3358 29.334 13.3358C29.7022 13.3358 30.0007 13.6342 30.0007 14.0024C30.0007 14.3706 29.7022 14.669 29.334 14.669H28.6674Z" fill="#2C3E50"/>
<path d="M37.3332 14.0025H39.3331C39.7013 14.0025 39.9998 13.704 39.9998 13.3358C39.9998 12.9677 39.7013 12.6692 39.3331 12.6692H37.3332C36.965 12.6692 36.6666 12.9677 36.6666 13.3358C36.6666 13.704 36.965 14.0025 37.3332 14.0025Z" fill="#2C3E50"/>
<path d="M34.2089 6.46069C34.3859 6.46083 34.5557 6.39056 34.6809 6.26536L36.0948 4.85075C36.2681 4.68338 36.3376 4.43552 36.2766 4.20244C36.2156 3.96936 36.0336 3.78734 35.8005 3.72633C35.5674 3.66533 35.3195 3.73483 35.1522 3.90812L33.7376 5.32207C33.5465 5.51266 33.4892 5.79965 33.5924 6.04901C33.6956 6.29838 33.939 6.4609 34.2089 6.46069Z" fill="#2C3E50"/>
<path d="M26.6672 3.33613C27.0354 3.33613 27.3338 3.03767 27.3338 2.66949V0.669571C27.3338 0.301395 27.0354 0.00292969 26.6672 0.00292969C26.299 0.00292969 26.0005 0.301395 26.0005 0.669571V2.66949C26.0005 3.03767 26.299 3.33613 26.6672 3.33613Z" fill="#2C3E50"/>
<path d="M19.5968 6.26537C19.722 6.14033 19.7924 5.97065 19.7924 5.79372C19.7924 5.61678 19.722 5.44711 19.5968 5.32207L18.1822 3.90812C18.0149 3.73483 17.767 3.66532 17.5339 3.72633C17.3008 3.78734 17.1188 3.96936 17.0578 4.20244C16.9968 4.43552 17.0663 4.68338 17.2396 4.85075L18.6536 6.26537C18.7786 6.39055 18.9483 6.46088 19.1252 6.46088C19.3021 6.46088 19.4718 6.39055 19.5968 6.26537Z" fill="#2C3E50"/>
<path d="M14.0013 12.6692C13.6331 12.6692 13.3347 12.9677 13.3347 13.3358C13.3347 13.704 13.6331 14.0025 14.0013 14.0025H16.0012C16.3694 14.0025 16.6679 13.704 16.6679 13.3358C16.6679 12.9677 16.3694 12.6692 16.0012 12.6692H14.0013Z" fill="#2C3E50"/>
</svg>
