<svg width="50" height="42" viewBox="0 0 50 42" fill="none" xmlns="http://www.w3.org/2000/svg">
<path d="M47.9004 35.767H46.4333C46.6215 35.4069 46.7285 34.9993 46.7285 34.5674L46.7275 9.63652C46.7275 8.18253 45.5228 6.99953 44.042 6.99953H40.0879V6.12118C40.0879 5.42856 39.5141 4.86501 38.8086 4.86501H37.5964V1.25618C37.5964 0.850659 37.3955 0.468153 37.0592 0.232838C36.7228 -0.00238115 36.289 -0.0637513 35.8985 0.0688651L33.5915 0.852194C33.2093 0.982029 33.0065 1.39148 33.1387 1.76689C33.2709 2.14221 33.6876 2.34175 34.0702 2.21154L36.1314 1.51163V18.8082L25.7324 22.3394V5.0428L31.1169 3.21445C31.4992 3.08462 31.7019 2.67517 31.5697 2.29976C31.4375 1.92444 31.0209 1.72508 30.6382 1.85511L25 3.76956L14.1015 0.0688651C13.711 -0.0638472 13.2772 -0.00238115 12.9408 0.232838C12.6045 0.468153 12.4036 0.850659 12.4036 1.25618V4.86492H11.1914C10.4859 4.86492 9.91211 5.42847 9.91211 6.12108V7.0004H5.95703C4.47617 7.0004 3.27148 8.1834 3.27148 9.63738L3.27158 12.1949C3.27158 12.5921 3.59951 12.9141 4.004 12.9141C4.4085 12.9141 4.73643 12.5921 4.73643 12.1949L4.73633 9.63748C4.73633 8.97651 5.28389 8.43885 5.95703 8.43885H9.91211V9.8772H6.93359C6.73936 9.8772 6.55303 9.95296 6.41572 10.0879C6.27832 10.2227 6.20117 10.4057 6.20117 10.5964L6.20215 33.6095C6.20215 34.0068 6.53008 34.3287 6.93457 34.3287L43.0664 34.3277C43.2606 34.3277 43.447 34.252 43.5844 34.117C43.7217 33.9822 43.7988 33.7993 43.7988 33.6085L43.7979 10.5954C43.7979 10.1981 43.4699 9.87625 43.0654 9.87625H40.0879V8.43789H44.042C44.7151 8.43789 45.2627 8.97555 45.2627 9.63652L45.2637 34.5674C45.2637 35.2284 44.7161 35.7661 44.043 35.7661L5.95801 35.767C5.28486 35.767 4.7373 35.2294 4.7373 34.5684L4.73662 15.2724C4.73662 14.8751 4.40869 14.5532 4.0042 14.5532C3.59971 14.5532 3.27178 14.8752 3.27178 15.2724L3.27246 34.5684C3.27246 34.9999 3.3792 35.4072 3.56719 35.767H2.09961C0.941895 35.767 0 36.6919 0 37.8287V39.9383C0 41.0751 0.941895 42 2.09961 42H31.2188C31.6234 42 31.9513 41.6781 31.9513 41.2808C31.9513 40.8835 31.6234 40.5616 31.2188 40.5616H2.09961C1.74961 40.5616 1.46484 40.282 1.46484 39.9384V37.8288C1.46484 37.4851 1.74961 37.2055 2.09961 37.2055H20.0684V37.7108C20.0684 38.7012 20.889 39.5069 21.8976 39.5069H28.1025C29.1111 39.5069 29.9316 38.7013 29.9316 37.7108V37.2055H47.9004C48.2504 37.2055 48.5352 37.4851 48.5352 37.8288V39.9384C48.5352 40.282 48.2504 40.5616 47.9004 40.5616H34.4165C34.0119 40.5616 33.6841 40.8835 33.6841 41.2808C33.6841 41.6781 34.0119 42 34.4165 42H47.9004C49.0581 42 50 41.0751 50 39.9384V37.8288C50 36.6919 49.0581 35.767 47.9004 35.767ZM36.7353 20.1251C37.2503 19.9501 37.5964 19.473 37.5964 18.9379V6.30337H38.623V22.6299H29.359L36.7353 20.1251ZM13.8685 1.51163L24.2676 5.0428V22.3394L13.8685 18.8082V1.51163ZM11.377 6.30337H12.4036V18.938C12.4036 19.4731 12.7497 19.9502 13.2649 20.1253L20.641 22.63H11.377V6.30337ZM42.333 11.3146L42.334 32.8894L7.66689 32.8903L7.66602 11.3156H9.91211V22.812C9.91211 23.5047 10.4859 24.0682 11.1914 24.0682H38.8086C39.5141 24.0682 40.0879 23.5047 40.0879 22.812V11.3146H42.333ZM28.4668 37.7107C28.4668 37.908 28.3033 38.0685 28.1025 38.0685H21.8976C21.6967 38.0685 21.5332 37.908 21.5332 37.7107V37.2054H28.4668V37.7107Z" fill="#2C3E50"/>
</svg>
