<svg width="40" height="40" viewBox="0 0 40 40" fill="none" xmlns="http://www.w3.org/2000/svg">
<path d="M37.3333 20H35.3333V7.33333C35.3333 7.15652 35.2631 6.98695 35.1381 6.86193C35.0131 6.73691 34.8435 6.66667 34.6667 6.66667H31.3333V4H32C32.1768 4 32.3464 3.92976 32.4714 3.80474C32.5964 3.67971 32.6667 3.51014 32.6667 3.33333V0.666667C32.6667 0.489856 32.5964 0.320286 32.4714 0.195262C32.3464 0.0702379 32.1768 0 32 0H8.00003C7.82322 0 7.65365 0.0702379 7.52863 0.195262C7.4036 0.320286 7.33336 0.489856 7.33336 0.666667V3.33333C7.33336 3.51014 7.4036 3.67971 7.52863 3.80474C7.65365 3.92976 7.82322 4 8.00003 4H8.6667V6.66667H5.33337C5.15655 6.66667 4.98699 6.73691 4.86196 6.86193C4.73694 6.98695 4.6667 7.15652 4.6667 7.33333V20H2.6667C0.584787 20 0.0121211 22.1758 3.78033e-05 23.3264C-0.000323478 23.3603 0.00190523 23.3941 0.00670446 23.4277L0.668454 28.0599C0.725775 29.0529 0.958361 30.0279 1.35545 30.9398C1.82795 31.9917 2.49587 32.7826 3.33337 33.2968V34.3906L0.195288 37.5286C0.133383 37.5905 0.0842778 37.664 0.0507767 37.7449C0.0172757 37.8258 3.46133e-05 37.9125 3.78033e-05 38V39.3333C3.78033e-05 39.5101 0.0702756 39.6797 0.1953 39.8047C0.320324 39.9298 0.489893 40 0.666704 40H8.6667C8.84351 40 9.01308 39.9298 9.1381 39.8047C9.26312 39.6797 9.33336 39.5101 9.33336 39.3333V36.6667C9.33333 36.595 9.3218 36.5238 9.2992 36.4558L8.6667 34.5583V33.4941C9.13448 33.2819 9.55062 32.9707 9.88636 32.582C10.3518 32.0229 10.6278 31.3304 10.6745 30.6044C10.8162 30.5858 10.9709 30.5622 11.1262 30.5322C11.5072 30.4588 12.6667 30.2353 12.6667 29.3333C12.6667 28.899 12.3901 28.4549 11.9713 27.7828C11.5275 27.0706 10.9753 26.1842 10.6344 25.1285C10.6194 25.0819 10.6028 25.0361 10.5854 24.9905L13.2214 21.0365C13.2883 20.9361 13.3267 20.8194 13.3326 20.6989C13.3384 20.5784 13.3114 20.4585 13.2545 20.3521C13.1975 20.2457 13.1128 20.1568 13.0093 20.0948C12.9058 20.0328 12.7874 20 12.6667 20H6.00003V8H8.6667V16.6667C8.6667 16.8435 8.73693 17.013 8.86196 17.1381C8.98698 17.2631 9.15655 17.3333 9.33336 17.3333H19.3334V20H16C15.9125 20 15.8258 20.0172 15.7449 20.0507C15.664 20.0842 15.5905 20.1333 15.5286 20.1952L14.1953 21.5286C14.1334 21.5905 14.0843 21.664 14.0508 21.7449C14.0173 21.8258 14 21.9125 14 22V28.6667C14.0004 29.639 14.2371 30.5966 14.6899 31.4571C15.1426 32.3175 15.7978 33.055 16.5989 33.6059L16.5475 33.863L11.0858 36.0477C10.9621 36.0971 10.856 36.1826 10.7813 36.2929C10.7066 36.4032 10.6667 36.5334 10.6667 36.6667V39.3333C10.6667 39.5101 10.7369 39.6797 10.862 39.8047C10.987 39.9298 11.1565 40 11.3334 40H28C28.1768 40 28.3464 39.9298 28.4714 39.8047C28.5964 39.6797 28.6667 39.5101 28.6667 39.3333V36.6667C28.6667 36.5377 28.6293 36.4115 28.559 36.3034C28.4887 36.1952 28.3886 36.1098 28.2708 36.0574L23.4641 33.9212L23.4011 33.6059C24.2022 33.055 24.8574 32.3175 25.3102 31.4571C25.7629 30.5966 25.9997 29.639 26 28.6667V22C26 21.9125 25.9828 21.8258 25.9493 21.7449C25.9158 21.664 25.8667 21.5905 25.8048 21.5286L24.4714 20.1952C24.4095 20.1333 24.336 20.0842 24.2551 20.0507C24.1743 20.0172 24.0876 20 24 20H20.6667V17.3333H30.6667C30.8435 17.3333 31.0131 17.2631 31.1381 17.1381C31.2631 17.013 31.3333 16.8435 31.3333 16.6667V8H34V20H32.6667C31.7829 20.0009 30.9356 20.3524 30.3107 20.9774C29.6858 21.6023 29.3343 22.4496 29.3333 23.3333V24.5583C29.0045 25.5409 28.4901 26.564 28.0736 27.3917C27.5569 28.418 27.3086 28.9293 27.3086 29.3338C27.3086 30.2358 28.4681 30.4593 28.8491 30.5328C29.0044 30.5627 29.1589 30.5863 29.3008 30.6049C29.3475 31.3309 29.6235 32.0233 30.0889 32.5825C30.4309 32.9779 30.8557 33.2931 31.3333 33.5056V35.1315L30.112 36.9635C30.039 37.073 30 37.2017 30 37.3333V39.3333C30 39.5101 30.0702 39.6797 30.1953 39.8047C30.3203 39.9298 30.4899 40 30.6667 40H39.3333C39.5101 40 39.6797 39.9298 39.8047 39.8047C39.9298 39.6797 40 39.5101 40 39.3333V23.3264C39.9879 22.1758 39.4152 20 37.3333 20ZM1.33337 38.6667V38.2761L4.15228 35.4573L8.00003 37.1063V38.6667H1.33337ZM7.36753 34.8775L7.5647 35.4692L4.6667 34.2271V33.8473C5.10348 33.951 5.55109 34.0023 6.00003 34C6.44662 34.0022 6.89261 33.9671 7.33336 33.8951V34.6667C7.33339 34.7383 7.34492 34.8095 7.36753 34.8775ZM10.8396 28.4878C10.9737 28.703 11.1288 28.952 11.2303 29.1384C10.8166 29.2477 10.3927 29.3134 9.96536 29.3342C9.87182 29.3391 9.78036 29.3637 9.69694 29.4062C9.61352 29.4488 9.54001 29.5085 9.4812 29.5814C9.42239 29.6543 9.3796 29.7388 9.35562 29.8293C9.33164 29.9199 9.32701 30.0145 9.34203 30.1069C9.36192 30.2933 9.35761 30.4814 9.3292 30.6667C9.30548 30.6667 9.28178 30.668 9.25819 30.6706C9.24195 30.6723 7.6532 30.8382 6.32911 30.0866C6.17536 29.9993 5.99321 29.9766 5.82276 30.0236C5.6523 30.0706 5.5075 30.1834 5.4202 30.3372C5.3329 30.4909 5.31025 30.6731 5.35725 30.8435C5.40424 31.014 5.51702 31.1588 5.67078 31.2461C6.69886 31.8294 7.81128 31.9858 8.55411 32.0155C7.98861 32.4476 7.13286 32.6667 6.00003 32.6667C3.03337 32.6667 2.26587 29.9694 2.06804 28.6667H3.33337C3.44849 28.6667 3.56165 28.6369 3.66184 28.5801C3.76202 28.5234 3.8458 28.4417 3.90503 28.343L5.71078 25.3333H9.27961C9.31376 25.3992 9.34252 25.4677 9.36561 25.5382C9.75694 26.75 10.3827 27.7544 10.8396 28.4878ZM9.64328 24H5.33337C5.21824 24 5.10508 24.0298 5.0049 24.0865C4.90472 24.1433 4.82093 24.2249 4.7617 24.3237L2.95595 27.3333H1.91154L1.33487 23.296C1.34812 22.9883 1.47504 21.3333 2.6667 21.3333H11.421L9.64328 24ZM19.3334 35.4534L17.5167 35.8167L17.8284 34.2583C18.3118 34.4469 18.8177 34.5715 19.3334 34.6288V35.4534ZM12 37.118L16.2354 35.4238L16.0129 36.5359C15.9914 36.6435 15.9968 36.7548 16.0286 36.8599C16.0604 36.9649 16.1176 37.0605 16.1952 37.1381C16.2729 37.2157 16.3684 37.273 16.4735 37.3048C16.5785 37.3366 16.6898 37.3419 16.7974 37.3204L19.3334 36.8132V38.6667H12V37.118ZM27.3333 37.0999V38.6667H20.6667V36.8132L23.2026 37.3204C23.3102 37.3419 23.4215 37.3366 23.5266 37.3048C23.6316 37.273 23.7272 37.2157 23.8048 37.1381C23.8824 37.0605 23.9397 36.9649 23.9715 36.8599C24.0033 36.7548 24.0086 36.6435 23.9871 36.5359L23.7844 35.5226L27.3333 37.0999ZM22.4833 35.8166L20.6667 35.4534V34.6284C21.1824 34.5711 21.6884 34.4465 22.1718 34.2578L22.4833 35.8166ZM20 33.3333C18.7804 33.3318 17.6097 32.8533 16.7382 32.0001C15.8666 31.1469 15.3634 29.9867 15.3359 28.7673L16.4805 25.3333H23.5195L24.6641 28.7673C24.6367 29.9867 24.1334 31.1469 23.2619 32.0001C22.3903 32.8533 21.2197 33.3318 20 33.3333ZM24.6667 22.2761V24.5583L24.6325 24.4557C24.5882 24.323 24.5033 24.2075 24.3898 24.1258C24.2763 24.044 24.1399 24 24 24H16C15.8601 24 15.7237 24.044 15.6102 24.1258C15.4967 24.2076 15.4118 24.3231 15.3675 24.4558L15.3334 24.5583V22.2761L16.2761 21.3333H23.7239L24.6667 22.2761ZM8.6667 1.33333H31.3333V2.66667H8.6667V1.33333ZM28.6667 4L25.1111 6.66667H22.552C22.4586 6.40178 22.3103 6.15955 22.117 5.95577C21.9237 5.75199 21.6896 5.59123 21.43 5.48396C21.1704 5.37669 20.8911 5.32532 20.6103 5.3332C20.3295 5.34108 20.0535 5.40803 19.8003 5.52969C19.5472 5.65134 19.3224 5.82498 19.1409 6.03928C18.9593 6.25358 18.8248 6.50374 18.7464 6.77345C18.6679 7.04317 18.6472 7.32639 18.6855 7.60466C18.7238 7.88293 18.8203 8.15001 18.9687 8.3885L17.6199 10.0745L14.8969 10.7553C14.6065 10.3904 14.1978 10.1386 13.7413 10.0433C13.2849 9.948 12.8095 10.0152 12.3974 10.2333C11.9852 10.4515 11.6623 10.8068 11.4844 11.2378C11.3066 11.6688 11.2849 12.1485 11.4233 12.5938L10 14.5864V4H28.6667ZM20 7.33333C20 7.20148 20.0391 7.07259 20.1124 6.96295C20.1856 6.85332 20.2897 6.76787 20.4116 6.71741C20.5334 6.66696 20.6674 6.65375 20.7967 6.67948C20.9261 6.7052 21.0449 6.76869 21.1381 6.86193C21.2313 6.95516 21.2948 7.07395 21.3205 7.20327C21.3463 7.33259 21.3331 7.46664 21.2826 7.58846C21.2321 7.71027 21.1467 7.81439 21.0371 7.88765C20.9274 7.9609 20.7985 8 20.6667 8C20.4899 7.9998 20.3205 7.9295 20.1955 7.80452C20.0705 7.67954 20.0002 7.51008 20 7.33333ZM12.6667 12C12.6667 11.8681 12.7058 11.7393 12.779 11.6296C12.8523 11.52 12.9564 11.4345 13.0782 11.3841C13.2001 11.3336 13.3341 11.3204 13.4634 11.3461C13.5927 11.3719 13.7115 11.4354 13.8048 11.5286C13.898 11.6218 13.9615 11.7406 13.9872 11.8699C14.0129 11.9993 13.9997 12.1333 13.9493 12.2551C13.8988 12.3769 13.8134 12.4811 13.7037 12.5543C13.5941 12.6276 13.4652 12.6667 13.3334 12.6667C13.1566 12.6665 12.9872 12.5962 12.8622 12.4712C12.7372 12.3462 12.6669 12.1768 12.6667 12ZM12.275 13.6957C12.5314 13.8563 12.821 13.9565 13.1218 13.9887C13.4226 14.0209 13.7269 13.9843 14.0114 13.8816C14.0041 13.9206 14.0003 13.9603 14 14V16H10.6288L12.275 13.6957ZM15.3334 16V14.6667H16.6667V16H15.3334ZM20.6667 16V12.6667H22V16H20.6667ZM26 16V10.6667H27.3333V16H26ZM28.6667 16V10C28.6667 9.82319 28.5964 9.65362 28.4714 9.52859C28.3464 9.40357 28.1768 9.33333 28 9.33333H25.3333C25.1565 9.33333 24.987 9.40357 24.8619 9.52859C24.7369 9.65362 24.6667 9.82319 24.6667 10V16H23.3333V12C23.3333 11.8232 23.2631 11.6536 23.1381 11.5286C23.0131 11.4036 22.8435 11.3333 22.6667 11.3333H20C19.8232 11.3333 19.6536 11.4036 19.5286 11.5286C19.4036 11.6536 19.3334 11.8232 19.3334 12V16H18V14C18 13.8232 17.9298 13.6536 17.8048 13.5286C17.6797 13.4036 17.5102 13.3333 17.3334 13.3333H14.8224C15.1468 12.9725 15.3283 12.5058 15.3329 12.0207L18.1617 11.3134C18.3033 11.2781 18.4294 11.1972 18.5206 11.0833L20.0096 9.22217C20.5089 9.39621 21.0567 9.36532 21.5333 9.13625C22.0098 8.90718 22.3761 8.4986 22.552 8H25.3333C25.4776 8 25.6179 7.95322 25.7333 7.86667L30 4.66667V16H28.6667ZM30.6667 23.3333C30.6672 22.8031 30.8781 22.2947 31.2531 21.9198C31.628 21.5448 32.1364 21.3339 32.6667 21.3333H37.3333C38.605 21.3333 38.6642 23.2191 38.6667 23.3389V36H36.5967L35.3293 24.593C35.3111 24.4299 35.2335 24.2793 35.1113 24.1699C34.989 24.0605 34.8307 24 34.6667 24H30.6667V23.3333ZM30.0103 29.3342C29.5733 29.3136 29.1398 29.2451 28.7177 29.1301C28.8367 28.8407 29.0683 28.3801 29.2645 27.9907C29.6526 27.2197 30.1222 26.2863 30.474 25.3333H34.07L34.8748 32.5769C34.5788 32.6378 34.2772 32.6679 33.975 32.6667C32.8583 32.6667 32.0107 32.4541 31.4453 32.0345C31.7819 31.9995 32.1083 31.8983 32.4058 31.7369C32.7032 31.5754 32.9659 31.3567 33.1786 31.0934C33.2906 30.9574 33.3442 30.7827 33.3278 30.6073C33.3113 30.4319 33.2261 30.2702 33.0908 30.1574C32.9554 30.0446 32.781 29.99 32.6055 30.0055C32.43 30.0209 32.2678 30.1052 32.1543 30.2399C31.9994 30.4301 31.7944 30.5731 31.5624 30.6526C31.3304 30.7322 31.0807 30.7451 30.8418 30.6899L30.8496 30.6922L30.7421 31.0683C30.6392 30.7588 30.6021 30.4313 30.6331 30.1068C30.6481 30.0143 30.6435 29.9198 30.6195 29.8293C30.5956 29.7387 30.5528 29.6543 30.494 29.5814C30.4353 29.5085 30.3618 29.4488 30.2784 29.4062C30.195 29.3636 30.1036 29.339 30.0101 29.3341L30.0103 29.3342ZM33.975 34C34.3262 34.0008 34.6768 33.9695 35.0223 33.9065L35.1815 35.3398L31.8429 36.7708L32.5544 35.7034C32.6276 35.5938 32.6666 35.4651 32.6667 35.3333V33.8995C33.0993 33.9684 33.5369 34.002 33.975 34ZM31.3333 38.6667V38.4396L35.3357 36.7243L35.3374 36.7403C35.3555 36.9034 35.4332 37.054 35.5554 37.1634C35.6777 37.2728 35.8359 37.3333 36 37.3333H38.6667V38.6667H31.3333Z" fill="#2C3E50"/>
</svg>
