<svg width="36" height="40" viewBox="0 0 36 40" fill="none" xmlns="http://www.w3.org/2000/svg">
<path d="M35.1932 16.1453H7.93885L34.1149 8.73267C34.3146 8.67799 34.4903 8.5374 34.5941 8.35774C34.698 8.17809 34.722 7.95938 34.658 7.76411L33.2921 3.14001C32.741 1.28881 30.9837 0 29.0187 0C28.6033 0 28.1879 0.0546768 27.7885 0.171841L3.21007 7.13142C2.06781 7.45167 1.13324 8.19371 0.558119 9.21695C-0.017003 10.2324 -0.152796 11.404 0.174704 12.521L1.51666 17.0357V35.6493C1.51666 38.0473 3.51361 40 5.95787 40H15.5592C15.9985 40 16.358 39.6485 16.358 39.2189C16.358 38.7893 15.9985 38.4378 15.5592 38.4378H5.95787C4.39226 38.43 3.11422 37.1802 3.11422 35.6415V25.0186H7.20397H13.4584H19.7129H25.9673H34.3785V35.6493C34.3785 37.188 33.1004 38.4378 31.5268 38.4378H21.9495C21.5101 38.4378 21.1507 38.7893 21.1507 39.2189C21.1507 39.6485 21.5101 40 21.9495 40H31.5508C34.003 40 36 38.0473 36 35.6493V16.9264C35.992 16.4968 35.6326 16.1453 35.1932 16.1453ZM21.1107 23.4564L24.5056 17.7075H28.9148L25.52 23.4564H21.1107ZM14.8483 23.4564L18.2431 17.7075H22.6604L19.2656 23.4564H14.8483ZM8.58586 23.4564L11.9807 17.7075H16.3979L13.0031 23.4564H8.58586ZM11.5573 13.3411L5.878 8.00625L10.1355 6.79555C10.1674 6.8346 10.1994 6.88147 10.2393 6.91271L15.9187 12.2476L11.6612 13.4583C11.6372 13.4193 11.5973 13.3802 11.5573 13.3411ZM22.261 3.51494L27.9403 8.84983L23.6828 10.0527C23.6509 10.0137 23.6189 9.9668 23.579 9.93556L17.8996 4.60066L22.1571 3.39777C22.1891 3.43683 22.221 3.47588 22.261 3.51494ZM16.2542 5.21773L21.9335 10.5526L17.676 11.7555C17.644 11.7165 17.6121 11.6696 17.5721 11.6384L11.8928 6.30346L16.1503 5.10057C16.1743 5.13962 16.2142 5.17868 16.2542 5.21773ZM28.2279 1.67155C28.4835 1.60125 28.7471 1.56219 29.0107 1.56219C30.2727 1.56219 31.399 2.39016 31.7505 3.56962L32.9007 7.44386L29.6976 8.34993C29.6657 8.31088 29.6337 8.26401 29.5938 8.23277L23.9145 2.89787L28.2279 1.67155ZM1.95598 9.9668C2.32342 9.31068 2.9305 8.84202 3.65739 8.63113L4.12867 8.49834C4.16062 8.5374 4.19257 8.58426 4.23251 8.61551L9.91184 13.9504L2.85861 15.95L1.70836 12.0758C1.50068 11.3728 1.58855 10.6229 1.95598 9.9668ZM3.11422 17.7075H10.1435L6.74867 23.4564H3.11422V17.7075ZM27.3652 23.4564L30.76 17.7075H34.3945V23.4564H27.3652Z" fill="#2C3E50"/>
</svg>
