<svg width="15" height="16" viewBox="0 0 15 16" fill="none" xmlns="http://www.w3.org/2000/svg">
<path d="M1 9C0.447715 9 7.42804e-08 8.55228 0 8C-7.42804e-08 7.44772 0.447715 7 1 7L1 9ZM14.7071 7.29289C15.0976 7.68342 15.0976 8.31658 14.7071 8.7071L8.34315 15.0711C7.95262 15.4616 7.31946 15.4616 6.92893 15.0711C6.53841 14.6805 6.53841 14.0474 6.92893 13.6569L12.5858 8L6.92893 2.34315C6.53841 1.95262 6.53841 1.31946 6.92893 0.928931C7.31946 0.538407 7.95262 0.538407 8.34314 0.928931L14.7071 7.29289ZM1 7L14 7L14 9L1 9L1 7Z" fill="white"/>
</svg>
