<svg width="14" height="14" viewBox="0 0 14 14" fill="none" xmlns="http://www.w3.org/2000/svg">
<path fill-rule="evenodd" clip-rule="evenodd" d="M13.8076 5.89581L7.78213 0.291112C7.33844 -0.0970374 6.66318 -0.0970374 6.21949 0.291112L0.192425 5.89581C-0.0472328 6.10397 -0.0650452 6.45925 0.150323 6.69089C0.365691 6.92253 0.734893 6.93974 0.972932 6.73158L7 1.12689L13.0271 6.73158C13.2667 6.93974 13.6343 6.92253 13.8497 6.69089C14.065 6.45925 14.0472 6.10397 13.8076 5.89581ZM12.198 7.97429C11.8758 7.97429 11.6151 8.22627 11.6151 8.53773V12.8731H9.29947V9.11683C9.29947 8.49391 8.77805 7.98994 8.13357 7.98994H5.86653C5.22205 7.98994 4.70063 8.49391 4.70063 9.11683V12.8731H2.38502V8.53773C2.38502 8.22627 2.12431 7.97429 1.80207 7.97429C1.47982 7.97429 1.21912 8.22627 1.21912 8.53773V12.8731C1.21912 13.496 1.74053 14 2.38502 14H11.6151C12.2596 14 12.781 13.496 12.781 12.8731V8.53773C12.781 8.22627 12.5203 7.97429 12.198 7.97429ZM8.13349 9.11683H5.86646V12.8731H8.13349V9.11683Z" fill="#9099A3"/>
</svg>
