<svg width="30" height="30" viewBox="0 0 30 30" fill="none" xmlns="http://www.w3.org/2000/svg">
<path fill-rule="evenodd" clip-rule="evenodd" d="M15 0C6.71573 0 0 6.71573 0 15C0 23.2843 6.71573 30 15 30C23.2843 30 30 23.2843 30 15C30 6.71573 23.2843 0 15 0ZM11.702 7.0483C12.5554 7.00947 12.828 6.99997 15.0007 6.99997H14.9982C17.1716 6.99997 17.4432 7.00947 18.2966 7.0483C19.1483 7.0873 19.7299 7.22214 20.2399 7.41997C20.7666 7.62414 21.2116 7.89748 21.6566 8.34248C22.1016 8.78716 22.375 9.23349 22.58 9.75966C22.7766 10.2683 22.9116 10.8497 22.9516 11.7014C22.99 12.5547 23 12.8274 23 15.0001C23 17.1727 22.99 17.4447 22.9516 18.2981C22.9116 19.1494 22.7766 19.7309 22.58 20.2398C22.375 20.7658 22.1016 21.2121 21.6566 21.6568C21.2121 22.1018 20.7664 22.3758 20.2404 22.5801C19.7314 22.778 19.1494 22.9128 18.2978 22.9518C17.4444 22.9906 17.1726 23.0001 14.9997 23.0001C12.8272 23.0001 12.5547 22.9906 11.7014 22.9518C10.8498 22.9128 10.2683 22.778 9.75933 22.5801C9.23349 22.3758 8.78716 22.1018 8.34265 21.6568C7.89781 21.2121 7.62448 20.7658 7.41997 20.2396C7.22231 19.7309 7.08747 19.1496 7.0483 18.2979C7.00964 17.4446 6.99997 17.1727 6.99997 15.0001C6.99997 12.8274 7.00997 12.5545 7.04814 11.7012C7.08647 10.8498 7.22147 10.2683 7.41981 9.7595C7.62481 9.23349 7.89815 8.78716 8.34315 8.34248C8.78782 7.89765 9.23416 7.62431 9.76033 7.41997C10.269 7.22214 10.8503 7.0873 11.702 7.0483Z" fill="white"/>
<path fill-rule="evenodd" clip-rule="evenodd" d="M14.2831 8.4417C14.4225 8.44148 14.5724 8.44155 14.7341 8.44162L15.0008 8.4417C17.1368 8.4417 17.39 8.44936 18.2335 8.4877C19.0135 8.52336 19.4368 8.6537 19.7188 8.7632C20.0922 8.9082 20.3583 9.08154 20.6382 9.36154C20.9182 9.64154 21.0915 9.90821 21.2368 10.2815C21.3463 10.5632 21.4769 10.9866 21.5124 11.7666C21.5507 12.6099 21.559 12.8632 21.559 14.9983C21.559 17.1333 21.5507 17.3866 21.5124 18.23C21.4767 19.01 21.3463 19.4333 21.2368 19.715C21.0918 20.0883 20.9182 20.3542 20.6382 20.634C20.3582 20.914 20.0923 21.0873 19.7188 21.2323C19.4372 21.3423 19.0135 21.4723 18.2335 21.508C17.3901 21.5463 17.1368 21.5547 15.0008 21.5547C12.8646 21.5547 12.6114 21.5463 11.7681 21.508C10.9881 21.472 10.5647 21.3417 10.2826 21.2322C9.90923 21.0872 9.64256 20.9138 9.36256 20.6338C9.08256 20.3538 8.90922 20.0878 8.76389 19.7143C8.65439 19.4326 8.52388 19.0093 8.48838 18.2293C8.45005 17.386 8.44238 17.1326 8.44238 14.9963C8.44238 12.8599 8.45005 12.6079 8.48838 11.7646C8.52405 10.9846 8.65439 10.5612 8.76389 10.2792C8.90889 9.90588 9.08256 9.63921 9.36256 9.35921C9.64256 9.0792 9.90923 8.90587 10.2826 8.76053C10.5646 8.65053 10.9881 8.52053 11.7681 8.4847C12.5061 8.45136 12.7921 8.44136 14.2831 8.4397V8.4417ZM19.2712 9.77008C18.7412 9.77008 18.3112 10.1996 18.3112 10.7298C18.3112 11.2598 18.7412 11.6898 19.2712 11.6898C19.8012 11.6898 20.2312 11.2598 20.2312 10.7298C20.2312 10.1997 19.8012 9.76974 19.2712 9.76974V9.77008ZM10.8924 15.0001C10.8924 12.7313 12.7318 10.8918 15.0006 10.8917C17.2695 10.8917 19.1085 12.7312 19.1085 15.0001C19.1085 17.269 17.2696 19.1076 15.0008 19.1076C12.7319 19.1076 10.8924 17.269 10.8924 15.0001Z" fill="white"/>
<path d="M15.0008 12.3335C16.4734 12.3335 17.6674 13.5273 17.6674 15.0002C17.6674 16.4729 16.4734 17.6669 15.0008 17.6669C13.5279 17.6669 12.3341 16.4729 12.3341 15.0002C12.3341 13.5273 13.5279 12.3335 15.0008 12.3335Z" fill="white"/>
</svg>
